<?xml version="1.0" encoding="UTF-8" standalone="no"?>
<!-- Generated by IcoMoon.io -->

<svg
   version="1.1"
   width="352.26599"
   height="512.76703"
   viewBox="0 0 352.26599 512.76703"
   id="svg25"
   xmlns="http://www.w3.org/2000/svg"
   xmlns:svg="http://www.w3.org/2000/svg">
  <defs
     id="defs29" />
  <title
     id="title20" />
  <g
     id="icomoon-ignore"
     transform="translate(-319.87,-143.81)" />
  <path
     fill="#4477bb"
     d="m 175.88,512.766 c -8.729,-0.141 -15.752,-7.25 -15.752,-16 0,-0.088 0.001,-0.176 0.002,-0.264 V 56.89 L 27.755,197.515 c -2.828,3.08 -6.828,5.046 -11.288,5.187 -0.156,0.004 -0.31,0.007 -0.465,0.007 C 7.165,202.709 0,195.545 0,186.707 0,182.38 1.718,178.454 4.508,175.573 L 161.129,9.14 c 2.632,-5.443 8.111,-9.131 14.451,-9.131 0.149,0 0.297,0.002 0.445,0.006 C 176.204,0.005 176.44,0 176.677,0 c 6.392,0 11.909,3.748 14.473,9.167 l 156.604,166.41 c 2.791,2.877 4.512,6.806 4.512,11.138 0,8.599 -6.783,15.614 -15.291,15.986 -0.222,0.009 -0.443,0.014 -0.665,0.014 -4.668,0 -8.87,-1.999 -11.795,-5.188 L 192.129,56.89 v 439.625 c 0.001,0.074 0.002,0.162 0.002,0.25 0,8.837 -7.164,16.002 -16.002,16.002 -0.088,0 -0.176,-0.001 -0.264,-0.002 z"
     id="path23" />
</svg>
